<svg id="SvgjsSvg1032" width="100%" height="100%" xmlns="http://www.w3.org/2000/svg" version="1.1" xlink="http://www.w3.org/1999/xlink" xmlns:svgjs="http://svgjs.com/svgjs" preserveAspectRatio="xMidYMid meet" viewBox="0 0 238.8934326171875 147.00001525878906" overflow="visible"><defs id="SvgjsDefs1033"></defs><g id="SvgjsG1034" transform="scale(0.9205911823647294)" opacity="1"><g id="SvgjsG1035" class="raxR5u3Rq" transform="translate(83.04, 0) scale(0.9342)" light-content="false" non-strokable="false" fill="#f49715"><rect width="100" height="100" rx="10"></rect></g><g id="SvgjsG1036" class="uddanU_SN5" transform="translate(101.51675901097984, 18.31481520321851) scale(0.5646681369989206)" light-content="true" non-strokable="false" fill="#ffffff"><path d="M50.299 6.573C40.379 16.97 34.043 32.63 33.966 50.181 33.89 67.732 40.088 83.518 49.918 94c-2.85-15.867-.277-33.22 8.136-47.2 2.137-3.551 4.54-6.7 7.144-9.43C62.982 25.116 57.655 14.402 50.3 6.573z" color="#000"></path><path d="M6.181 24.14c-2.92 15.853-.477 33.146 7.875 47.163 8.351 14.017 20.351 21.873 33.206 22.693-9.876-10.44-15.602-26.198-15.602-43.75 0-4.49.406-8.828 1.181-13.018-7.634-8.035-17.058-12.488-26.66-13.089zm87.775.413C60.111 30.71 47.4 65.07 52.304 93.998 86.35 87.84 98.923 53.663 93.956 24.553z" color="#000"></path></g><g id="SvgjsG1037" class="text" transform="translate(127.6500015258789, 158.96000091552736) scale(1)" light-content="false" fill="#fafafa"><path d="M-107.49 -12.24L-90.39 -38.82L-102.63 -38.82L-104.43 -35.16L-110.97 -23.82L-111.69 -23.82L-114.63 -35.58L-115.17 -38.82L-127.65 -38.82L-118.53 -12.42L-118.71 -10.2L-120.51 0L-108.57 0L-107.85 -10.2Z M-62.22 -35.31C-65.08 -38.13 -69.13 -39.54 -74.37 -39.54C-78.85 -39.54 -82.7 -38.56 -85.92 -36.6C-89.14 -34.64 -91.58 -31.93 -93.24 -28.47C-94.9 -25.01 -95.73 -21.04 -95.73 -16.56C-95.73 -10.76 -94.29 -6.43 -91.41 -3.57C-88.53 -0.71 -84.47 0.72 -79.23 0.72C-74.75 0.72 -70.91 -0.27 -67.71 -2.25C-64.51 -4.23 -62.08 -6.97 -60.42 -10.47C-58.76 -13.97 -57.93 -17.96 -57.93 -22.44C-57.93 -28.2 -59.36 -32.49 -62.22 -35.31ZM-79.74 -28.92C-78.68 -29.64 -77.35 -30 -75.75 -30C-74.31 -30 -73.22 -29.74 -72.48 -29.22C-71.74 -28.7 -71.23 -27.85 -70.95 -26.67C-70.67 -25.49 -70.53 -23.84 -70.53 -21.72C-70.53 -18.04 -70.84 -15.21 -71.46 -13.23C-72.08 -11.25 -72.93 -9.9 -74.01 -9.18C-75.09 -8.46 -76.41 -8.1 -77.97 -8.1C-79.41 -8.1 -80.5 -8.36 -81.24 -8.88C-81.98 -9.4 -82.49 -10.24 -82.77 -11.4C-83.05 -12.56 -83.19 -14.22 -83.19 -16.38C-83.19 -20.06 -82.88 -22.89 -82.26 -24.87C-81.64 -26.85 -80.8 -28.2 -79.74 -28.92Z M-21.09 -19.14L-18.27 -38.82L-30.45 -38.82L-32.85 -14.58C-33.05 -12.5 -33.63 -11 -34.59 -10.08C-35.55 -9.16 -36.97 -8.7 -38.85 -8.7C-40.49 -8.7 -41.67 -9.04 -42.39 -9.72C-43.11 -10.4 -43.47 -11.48 -43.47 -12.96C-43.47 -13.24 -43.43 -13.78 -43.35 -14.58L-39.87 -38.82L-51.87 -38.82L-53.91 -19.14L-54.81 -12.96C-54.93 -12.08 -54.99 -11.22 -54.99 -10.38C-54.99 -6.82 -53.66 -4.08 -51 -2.16C-48.34 -0.24 -44.63 0.72 -39.87 0.72C-34.51 0.72 -30.31 -0.45 -27.27 -2.79C-24.23 -5.13 -22.43 -8.52 -21.87 -12.96Z M13.59 -37.44C10.03 -38.84 6.33 -39.54 2.49 -39.54C-0.79 -39.54 -3.76 -38.91 -6.42 -37.65C-9.08 -36.39 -11.17 -34.66 -12.69 -32.46C-14.21 -30.26 -14.97 -27.84 -14.97 -25.2C-14.97 -23.24 -14.51 -21.58 -13.59 -20.22C-12.67 -18.86 -11.59 -17.78 -10.35 -16.98C-9.11 -16.18 -7.51 -15.32 -5.55 -14.4C-3.83 -13.6 -2.56 -12.91 -1.74 -12.33C-0.92 -11.75 -0.51 -11.06 -0.51 -10.26C-0.51 -9.66 -0.77 -9.15 -1.29 -8.73C-1.81 -8.31 -2.65 -8.1 -3.81 -8.1C-5.25 -8.1 -6.97 -8.5 -8.97 -9.3C-10.97 -10.1 -12.83 -11.22 -14.55 -12.66L-15.81 -11.94L-18.69 -1.56C-14.37 -0.04 -10.15 0.72 -6.03 0.72C-2.59 0.72 0.48 0.09 3.18 -1.17C5.88 -2.43 7.98 -4.14 9.48 -6.3C10.98 -8.46 11.73 -10.8 11.73 -13.32C11.73 -15.28 11.25 -16.95 10.29 -18.33C9.33 -19.71 8.2 -20.81 6.9 -21.63C5.6 -22.45 3.97 -23.32 2.01 -24.24C0.29 -25.04 -0.96 -25.71 -1.74 -26.25C-2.52 -26.79 -2.91 -27.44 -2.91 -28.2C-2.91 -28.8 -2.62 -29.31 -2.04 -29.73C-1.46 -30.15 -0.67 -30.36 0.33 -30.36C1.33 -30.36 2.62 -30.06 4.2 -29.46C5.78 -28.86 7.35 -28.04 8.91 -27L10.59 -27.72Z M55.17 -38.82L42.99 -38.82L41.49 -24.12L35.91 -24L29.85 -24.12L32.01 -38.82L19.83 -38.82L17.07 -11.4L15.03 0L27.03 0L28.11 -12.6L28.35 -14.34L34.05 -14.52L40.53 -14.4L40.23 -11.4L38.19 0L50.19 0L51.27 -12.6Z M90.78 -35.31C87.92 -38.13 83.87 -39.54 78.63 -39.54C74.15 -39.54 70.3 -38.56 67.08 -36.6C63.86 -34.64 61.42 -31.93 59.76 -28.47C58.1 -25.01 57.27 -21.04 57.27 -16.56C57.27 -10.76 58.71 -6.43 61.59 -3.57C64.47 -0.71 68.53 0.72 73.77 0.72C78.25 0.72 82.09 -0.27 85.29 -2.25C88.49 -4.23 90.92 -6.97 92.58 -10.47C94.24 -13.97 95.07 -17.96 95.07 -22.44C95.07 -28.2 93.64 -32.49 90.78 -35.31ZM73.26 -28.92C74.32 -29.64 75.65 -30 77.25 -30C78.69 -30 79.78 -29.74 80.52 -29.22C81.26 -28.7 81.77 -27.85 82.05 -26.67C82.33 -25.49 82.47 -23.84 82.47 -21.72C82.47 -18.04 82.16 -15.21 81.54 -13.23C80.92 -11.25 80.07 -9.9 78.99 -9.18C77.91 -8.46 76.59 -8.1 75.03 -8.1C73.59 -8.1 72.5 -8.36 71.76 -8.88C71.02 -9.4 70.51 -10.24 70.23 -11.4C69.95 -12.56 69.81 -14.22 69.81 -16.38C69.81 -20.06 70.12 -22.89 70.74 -24.87C71.36 -26.85 72.2 -28.2 73.26 -28.92Z M128.46 -36.09C126.2 -37.95 123.07 -38.88 119.07 -38.88L101.31 -38.82L98.55 -11.4L96.57 0L108.57 0L109.53 -10.98L113.01 -10.98C116.73 -10.98 120.02 -11.71 122.88 -13.17C125.74 -14.63 127.95 -16.67 129.51 -19.29C131.07 -21.91 131.85 -24.9 131.85 -28.26C131.85 -31.62 130.72 -34.23 128.46 -36.09ZM118.2 -22.11C117.58 -21.01 116.55 -20.1 115.11 -19.38L110.67 -19.62L112.29 -30.42L114.45 -30.6C116.05 -30.52 117.23 -30.13 117.99 -29.43C118.75 -28.73 119.13 -27.68 119.13 -26.28C119.13 -24.6 118.82 -23.21 118.2 -22.11Z"></path></g></g></svg>